<?xml version="1.0" encoding="UTF-8"?>
<svg width="726px" height="726px" viewBox="0 0 726 726" version="1.1" xmlns="http://www.w3.org/2000/svg" xmlns:xlink="http://www.w3.org/1999/xlink">
    <!-- Generator: Sketch 45 (43475) - http://www.bohemiancoding.com/sketch -->
    <title>SheriffBadge</title>
    <desc>Created with Sketch.</desc>
    <defs>
        <radialGradient cx="50%" cy="50%" fx="50%" fy="50%" r="68.2045248%" id="radialGradient-1">
            <stop stop-color="#FFFFFF" offset="0%"></stop>
            <stop stop-color="#5F5F5F" offset="100%"></stop>
        </radialGradient>
        <circle id="path-2" cx="362.700079" cy="362.700079" r="353.191376"></circle>
        <filter x="-4.5%" y="-4.5%" width="108.9%" height="108.9%" filterUnits="objectBoundingBox" id="filter-3">
            <feOffset dx="0" dy="0" in="SourceAlpha" result="shadowOffsetOuter1"></feOffset>
            <feGaussianBlur stdDeviation="10.5" in="shadowOffsetOuter1" result="shadowBlurOuter1"></feGaussianBlur>
            <feColorMatrix values="0 0 0 0 0   0 0 0 0 0   0 0 0 0 0  0 0 0 0.5 0" type="matrix" in="shadowBlurOuter1"></feColorMatrix>
        </filter>
        <filter x="-8.6%" y="-8.6%" width="117.1%" height="117.1%" filterUnits="objectBoundingBox" id="filter-4">
            <feGaussianBlur stdDeviation="39.5" in="SourceAlpha" result="shadowBlurInner1"></feGaussianBlur>
            <feOffset dx="0" dy="0" in="shadowBlurInner1" result="shadowOffsetInner1"></feOffset>
            <feComposite in="shadowOffsetInner1" in2="SourceAlpha" operator="arithmetic" k2="-1" k3="1" result="shadowInnerInner1"></feComposite>
            <feColorMatrix values="0 0 0 0 0   0 0 0 0 0   0 0 0 0 0  0 0 0 0.5 0" type="matrix" in="shadowInnerInner1"></feColorMatrix>
        </filter>
        <radialGradient cx="50%" cy="54.1769114%" fx="50%" fy="54.1769114%" r="49.809617%" gradientTransform="translate(0.500000,0.541769),scale(0.953417,1.000000),rotate(87.145473),translate(-0.500000,-0.541769)" id="radialGradient-5">
            <stop stop-color="#E2E2E2" offset="0%"></stop>
            <stop stop-color="#9A9A9A" offset="100%"></stop>
        </radialGradient>
        <path d="M62.1368077,258.732634 L264.362481,228.275038 L355.843017,45.3139656 C350.599552,42.6871226 347,37.2639215 347,31 C347,22.163444 354.163444,15 363,15 C371.836556,15 379,22.163444 379,31 C379,37.2639215 375.400448,42.6871226 370.156983,45.3139656 L461.615048,228.230095 L663.890408,258.695175 C664.768365,252.896603 668.813813,247.797365 674.771156,245.861707 C683.17522,243.131061 692.201686,247.730275 694.932332,256.134339 C697.662978,264.538403 693.063764,273.564869 684.6597,276.295515 C678.702357,278.231174 672.432263,276.483658 668.313667,272.308565 L522.612186,415.814546 L556.144698,617.604073 C561.93077,616.647202 568.030546,618.918901 571.712387,623.986519 C576.906384,631.135443 575.321603,641.141358 568.172679,646.335355 C561.023755,651.529353 551.017841,649.944571 545.823843,642.795648 C542.142003,637.728029 541.866423,631.224803 544.564457,626.017611 L363.057925,531.793055 L181.506796,626.040762 C184.204829,631.247955 183.92925,637.75118 180.247409,642.818799 C175.053412,649.967723 165.047497,651.552504 157.898573,646.358507 C150.749649,641.164509 149.164868,631.158595 154.358865,624.009671 C158.040706,618.942052 164.140482,616.670353 169.926554,617.627224 L203.450829,415.887265 L57.713549,272.346024 C53.5949529,276.521117 47.3248595,278.268633 41.3675162,276.332975 C32.963452,273.602329 28.3642378,264.575863 31.0948838,256.171799 C33.8255298,247.767735 42.8519958,243.16852 51.25606,245.899166 C57.2134033,247.834825 61.2588515,252.934063 62.1368077,258.732634 Z" id="path-6"></path>
        <filter x="-5.4%" y="-5.7%" width="110.8%" height="111.3%" filterUnits="objectBoundingBox" id="filter-7">
            <feMorphology radius="0.5" operator="dilate" in="SourceAlpha" result="shadowSpreadOuter1"></feMorphology>
            <feOffset dx="0" dy="0" in="shadowSpreadOuter1" result="shadowOffsetOuter1"></feOffset>
            <feGaussianBlur stdDeviation="11.5" in="shadowOffsetOuter1" result="shadowBlurOuter1"></feGaussianBlur>
            <feColorMatrix values="0 0 0 0 0   0 0 0 0 0   0 0 0 0 0  0 0 0 0.5 0" type="matrix" in="shadowBlurOuter1"></feColorMatrix>
        </filter>
        <filter x="-4.3%" y="-4.5%" width="108.6%" height="109.0%" filterUnits="objectBoundingBox" id="filter-8">
            <feGaussianBlur stdDeviation="4.5" in="SourceAlpha" result="shadowBlurInner1"></feGaussianBlur>
            <feOffset dx="0" dy="0" in="shadowBlurInner1" result="shadowOffsetInner1"></feOffset>
            <feComposite in="shadowOffsetInner1" in2="SourceAlpha" operator="arithmetic" k2="-1" k3="1" result="shadowInnerInner1"></feComposite>
            <feColorMatrix values="0 0 0 0 0   0 0 0 0 0   0 0 0 0 0  0 0 0 0.5 0" type="matrix" in="shadowInnerInner1"></feColorMatrix>
        </filter>
    </defs>
    <g id="Symbols" stroke="none" stroke-width="1" fill="none" fill-rule="evenodd">
        <g id="SheriffBadge">
            <g id="Oval">
                <use fill="black" fill-opacity="1" filter="url(#filter-3)" xlink:href="#path-2"></use>
                <use fill="url(#radialGradient-1)" fill-rule="evenodd" xlink:href="#path-2"></use>
                <use fill="black" fill-opacity="1" filter="url(#filter-4)" xlink:href="#path-2"></use>
            </g>
            <g id="Combined-Shape">
                <use fill="black" fill-opacity="1" filter="url(#filter-7)" xlink:href="#path-6"></use>
                <use fill="url(#radialGradient-5)" fill-rule="evenodd" xlink:href="#path-6"></use>
                <use fill="black" fill-opacity="1" filter="url(#filter-8)" xlink:href="#path-6"></use>
            </g>
        </g>
    </g>
</svg>